<svg xmlns="http://www.w3.org/2000/svg" width="1024" height="1024" viewBox="0 0 1024 1024" fill="none">
  <rect width="1024" height="1024" rx="170" fill="#0B5ED7"/>
  <rect x="70" y="70" width="884" height="884" rx="130" fill="#0A4EB4"/>

  <circle cx="512" cy="350" r="210" fill="white"/>
  <g fill="#0B5ED7">
    <path d="M512 210c-12.15 0-22 9.85-22 22v33.46c-18.18 3.5-35.22 11.6-49.95 23.42l-23.9-23.9c-8.59-8.59-22.52-8.59-31.11 0-8.59 8.59-8.59 22.52 0 31.11l23.9 23.9c-11.82 14.73-19.92 31.77-23.42 49.95H352c-12.15 0-22 9.85-22 22s9.85 22 22 22h33.52c3.5 18.18 11.6 35.22 23.42 49.95l-23.9 23.9c-8.59 8.59-8.59 22.52 0 31.11 8.59 8.59 22.52 8.59 31.11 0l23.9-23.9c14.73 11.82 31.77 19.92 49.95 23.42V610c0 12.15 9.85 22 22 22s22-9.85 22-22v-33.52c18.18-3.5 35.22-11.6 49.95-23.42l23.9 23.9c8.59 8.59 22.52 8.59 31.11 0 8.59-8.59 8.59-22.52 0-31.11l-23.9-23.9c11.82-14.73 19.92-31.77 23.42-49.95H672c12.15 0 22-9.85 22-22s-9.85-22-22-22h-33.52c-3.5-18.18-11.6-35.22-23.42-49.95l23.9-23.9c8.59-8.59 8.59-22.52 0-31.11-8.59-8.59-22.52-8.59-31.11 0l-23.9 23.9c-14.73-11.82-31.77-19.92-49.95-23.42V232c0-12.15-9.85-22-22-22z"/>
    <circle cx="512" cy="421" r="66"/>
  </g>

  <g>
    <rect x="250" y="586" width="524" height="170" rx="32" fill="white"/>

    <g transform="translate(285 607)">
      <rect x="0" y="68" width="280" height="48" rx="14" fill="#F28C28"/>
      <rect x="76" y="30" width="120" height="52" rx="10" fill="#F2A541"/>
      <rect x="94" y="40" width="48" height="22" rx="4" fill="#EAF2FF"/>
      <rect x="150" y="40" width="36" height="22" rx="4" fill="#EAF2FF"/>
      <circle cx="48" cy="120" r="28" fill="#1D2A3B"/>
      <circle cx="232" cy="120" r="28" fill="#1D2A3B"/>
      <circle cx="48" cy="120" r="12" fill="#8FA3BD"/>
      <circle cx="232" cy="120" r="12" fill="#8FA3BD"/>

      <path d="M208 62 L300 22 C312 16 326 24 327 36 C328 45 320 53 311 56 L248 78 Z" fill="#F28C28"/>
      <path d="M300 22 L352 62 C360 68 360 79 352 85 C344 91 333 90 326 84 L280 48 Z" fill="#F2A541"/>
      <rect x="340" y="82" width="70" height="16" rx="8" fill="#F28C28"/>
    </g>

    <circle cx="770" cy="630" r="54" fill="#0B5ED7"/>
    <text x="770" y="646" text-anchor="middle" font-family="Arial, Helvetica, sans-serif" font-size="44" font-weight="700" fill="white">11</text>
  </g>

  <text x="512" y="840" text-anchor="middle" font-family="Arial, Helvetica, sans-serif" font-size="64" font-weight="700" fill="white">EQUIPAMENTO GESTAO</text>
  <text x="512" y="895" text-anchor="middle" font-family="Arial, Helvetica, sans-serif" font-size="42" font-weight="600" fill="#D9E6FF">CONTROLE OPERACIONAL</text>
</svg>
